# xmcd
#
# Track frame offsets: 
#        150
#        19079
#        30814
#        51963
#        70078
#        82850
#        100182
#        114306
#        132512
#        156769
#
# Disc length: 2269 seconds
#
# Revision: 0
# Processed by: cddbd v1.5.2PL0 Copyright (c) Steve Scherf et al.
# Submitted via: ExactAudioCopyFreeDBPlugin 1.0
#
DISCID=7008db0a
DTITLE=Sky High - Sky High
DYEAR=1980
DGENRE=Blues
TTITLE0=Regnbågsbarn
TTITLE1=Kylan Ska Vika
TTITLE2=Vakna Alla Zombies
TTITLE3=Pengablues
TTITLE4=Skyhög Boogie
TTITLE5=Tillsammans Igen
TTITLE6=Ja' Ä' Dö Ida'
TTITLE7=Över Alla Gränser
TTITLE8=Morgonballad
TTITLE9=Dalarna
EXTD=
EXTT0=
EXTT1=
EXTT2=
EXTT3=
EXTT4=
EXTT5=
EXTT6=
EXTT7=
EXTT8=
EXTT9=
PLAYORDER=
